<svg width="28" height="27" viewBox="0 0 28 27" fill="none" xmlns="http://www.w3.org/2000/svg">
<path fill-rule="evenodd" clip-rule="evenodd" d="M3.57099 9.34966C3.57099 6.86998 4.66977 4.49186 6.62559 2.73845C8.58142 0.985051 11.2341 0 14.0001 0C16.766 0 19.4187 0.985051 21.3745 2.73845C23.3303 4.49186 24.4291 6.86998 24.4291 9.34966V10.3885C24.4291 13.3292 25.6652 16.008 27.7015 18.0345C27.8284 18.1605 27.9189 18.3125 27.965 18.4771C28.0112 18.6417 28.0117 18.814 27.9664 18.9788C27.9211 19.1437 27.8315 19.296 27.7053 19.4226C27.5791 19.5492 27.4203 19.6461 27.2427 19.7049C24.8571 20.4945 22.3603 21.0762 19.7785 21.4267C19.8367 22.1388 19.7304 22.8541 19.4663 23.5277C19.2023 24.2014 18.7861 24.8191 18.2438 25.3421C17.7016 25.8651 17.0449 26.2823 16.3147 26.5675C15.5845 26.8528 14.7966 27 14.0001 27C13.2036 27 12.4156 26.8528 11.6854 26.5675C10.9553 26.2823 10.2985 25.8651 9.75627 25.3421C9.214 24.8191 8.79784 24.2014 8.53379 23.5277C8.26973 22.8541 8.16345 22.1388 8.22158 21.4267C5.67481 21.0807 3.1739 20.5033 0.757462 19.7036C0.579988 19.6448 0.421255 19.548 0.295125 19.4216C0.168995 19.2952 0.0793052 19.143 0.0338882 18.9784C-0.0115288 18.8137 -0.0112915 18.6416 0.0345796 18.4771C0.0804508 18.3126 0.17056 18.1606 0.297039 18.0345C2.40882 15.9383 3.57575 13.2131 3.57099 10.3885V9.34966ZM10.5268 21.6774C10.507 22.0973 10.5822 22.5165 10.7479 22.9098C10.9135 23.303 11.1662 23.6621 11.4906 23.9655C11.8151 24.269 12.2047 24.5104 12.6359 24.6753C13.0672 24.8403 13.5312 24.9253 14.0001 24.9253C14.4689 24.9253 14.9329 24.8403 15.3642 24.6753C15.7954 24.5104 16.185 24.269 16.5095 23.9655C16.834 23.6621 17.0866 23.303 17.2523 22.9098C17.4179 22.5165 17.4931 22.0973 17.4733 21.6774C15.1625 21.864 12.8376 21.864 10.5268 21.6774Z" fill="white"/>
<path d="M14 3.24414C16.0554 3.24414 18.0271 4.06027 19.4805 5.51367C20.9338 6.96707 21.75 8.93877 21.75 10.9941C21.75 12.0118 21.5496 13.0198 21.1602 13.96C20.7707 14.9002 20.2001 15.755 19.4805 16.4746C18.7608 17.1942 17.906 17.7648 16.9658 18.1543C16.0256 18.5437 15.0177 18.7441 14 18.7441C12.9823 18.7441 11.9744 18.5437 11.0342 18.1543C10.094 17.7648 9.23916 17.1942 8.51953 16.4746C7.79993 15.755 7.22932 14.9002 6.83984 13.96C6.4504 13.0198 6.25003 12.0118 6.25 10.9941C6.25 8.93877 7.0662 6.96707 8.51953 5.51367C9.97294 4.06027 11.9446 3.24414 14 3.24414ZM14 4.74414C12.3424 4.74414 10.7532 5.40309 9.58105 6.5752C8.40903 7.74729 7.75 9.3366 7.75 10.9941C7.75003 11.8147 7.91158 12.6276 8.22559 13.3857C8.53968 14.1439 9.00074 14.8328 9.58105 15.4131C10.1614 15.9934 10.8502 16.4545 11.6084 16.7686C12.3666 17.0826 13.1793 17.2441 14 17.2441C14.8207 17.2441 15.6334 17.0826 16.3916 16.7686C17.1498 16.4545 17.8386 15.9934 18.4189 15.4131C18.9993 14.8328 19.4603 14.1439 19.7744 13.3857C20.0884 12.6276 20.25 11.8147 20.25 10.9941C20.25 9.3366 19.591 7.74729 18.4189 6.5752C17.2468 5.40309 15.6576 4.74414 14 4.74414ZM15.2197 8.71387C15.5126 8.42097 15.9874 8.42097 16.2803 8.71387C16.573 9.00677 16.5731 9.48156 16.2803 9.77441L15.0605 10.9941L16.2803 12.2139C16.573 12.5068 16.5731 12.9816 16.2803 13.2744C15.9874 13.5671 15.5126 13.5671 15.2197 13.2744L14 12.0547L12.7803 13.2744C12.4874 13.5671 12.0126 13.5671 11.7197 13.2744C11.4269 12.9816 11.427 12.5068 11.7197 12.2139L12.9395 10.9941L11.7197 9.77441C11.4269 9.48156 11.427 9.00677 11.7197 8.71387C12.0126 8.42097 12.4874 8.42097 12.7803 8.71387L14 9.93359L15.2197 8.71387Z" fill="currentColor" />
</svg>
